<?xml version="1.0" standalone="no"?><!DOCTYPE svg PUBLIC "-//W3C//DTD SVG 1.1//EN" "http://www.w3.org/Graphics/SVG/1.1/DTD/svg11.dtd"><svg class="icon" width="200px" height="200.00px" viewBox="0 0 1024 1024" version="1.1" xmlns="http://www.w3.org/2000/svg"><path d="M512 512m-512 0a512 512 0 1 0 1024 0 512 512 0 1 0-1024 0Z" fill="#3EACEC" /><path d="M804.430769 442.348308h-38.360615a174.119385 174.119385 0 0 0-171.756308-202.633846c-7.542154 0-14.887385 0.630154-22.153846 1.575384v-38.340923c7.286154-0.748308 14.670769-1.181538 22.153846-1.181538 117.149538 0 212.046769 94.995692 212.046769 212.066461 0 9.688615-0.689231 19.180308-1.929846 28.514462zM399.497846 389.316923c-36.273231 29.282462-22.350769 107.933538 31.015385 175.714462s126.070154 98.934154 162.343384 69.651692c29.833846-24.103385 25.619692-75.264-6.498461-132.647385l25.344-31.645538a261.454769 261.454769 0 0 1 36.411077 133.474461c0 15.990154-1.536 31.566769-4.233846 46.808616a201.984 201.984 0 0 1-147.731693 64.039384c-4.233846 0-8.448-0.196923-12.662154-0.413538v108.071385h-265.846153l152.024615-152.024616a202.043077 202.043077 0 0 1-76.091077-158.208c0-71.876923 37.454769-134.931692 93.814154-170.870154 60.987077 0.492308 123.372308 21.740308 167.68 57.048616l-29.341539 23.000615c-46.473846-40.448-97.634462-55.04-126.227692-32z m78.926769 147.062154l-4.371692-4.647385a28.376615 28.376615 0 0 1 1.673846-40.36923l178.747077-118.646154-135.404308 165.179077a28.888615 28.888615 0 0 1-40.644923-1.536z m103.227077-226.953846c-3.190154 0-6.380308 0.196923-9.491692 0.492307v-38.006153c3.190154-0.196923 6.301538-0.492308 9.491692-0.492308a155.096615 155.096615 0 0 1 154.249846 170.929231h-38.360615c0.689231-5.179077 1.181538-10.436923 1.181539-15.852308a117.011692 117.011692 0 0 0-117.07077-117.070769z" fill="#FFFFFF" /></svg>